<svg width="310" height="310" xmlns="http://www.w3.org/2000/svg">
 <g>
  <title>background</title>
  <rect x="-1" y="-1" width="312" height="312" id="canvas_background" fill="none"/>
 </g>

 <g>
  <title>Layer 1</title>
  <g id="svg_65" stroke="null">
   <path d="m210.91605,304.73529c51.24,0 92.931,-47.19511 92.931,-105.21041c0,-56.81847 -87.094,-185.7742 -90.803,-191.23411l-2.128,-3.11947l-2.128,3.13985c-3.704,5.44973 -90.802,134.41451 -90.802,191.22392c0.001,58.00511 41.691,105.20022 92.93,105.20022z" id="svg_64" fill="#f2720d" stroke-width="10" stroke="#ffffff"/>
  </g>
  <g id="svg_67" stroke="null">
   <path d="m150.91605,305.08255c51.24,0 92.931,-41.681 92.931,-92.918c0,-50.18 -87.094,-164.069 -90.803,-168.891l-2.128,-2.755l-2.128,2.773c-3.704,4.813 -90.802,118.71 -90.802,168.882c0.001,51.228 41.691,92.909 92.93,92.909z" id="svg_66" fill="#cb3804" stroke-width="10" stroke="#ffffff"/>
  </g>
  <g id="svg_4"/>
  <g id="svg_5"/>
  <g id="svg_6"/>
  <g id="svg_7"/>
  <g id="svg_8"/>
  <g id="svg_9"/>
  <g id="svg_10"/>
  <g id="svg_11"/>
  <g id="svg_12"/>
  <g id="svg_13"/>
  <g id="svg_14"/>
  <g id="svg_15"/>
  <g id="svg_16"/>
  <g id="svg_17"/>
  <g id="svg_18"/>
  <g id="svg_21"/>
  <g id="svg_22"/>
  <g id="svg_23"/>
  <g id="svg_24"/>
  <g id="svg_25"/>
  <g id="svg_26"/>
  <g id="svg_27"/>
  <g id="svg_28"/>
  <g id="svg_29"/>
  <g id="svg_30"/>
  <g id="svg_31"/>
  <g id="svg_32"/>
  <g id="svg_33"/>
  <g id="svg_34"/>
  <g id="svg_35"/>
  <g id="svg_73" stroke="null">
   <path d="m100.52671,305.3603c51.24,0 92.931,-34.59143 92.931,-77.11347c0,-41.64483 -87.094,-136.16231 -90.803,-140.16414l-2.128,-2.2864l-2.128,2.30134c-3.704,3.99435 -90.802,98.51848 -90.802,140.15667c0.001,42.51457 41.691,77.106 92.93,77.106z" id="svg_72" fill="#fac40a" stroke-width="10" stroke="#ffffff"/>
  </g>
 </g>
</svg>